<svg style="-webkit-tap-highlight-color: rgba(0, 0, 0, 0); " xmlns="http://www.w3.org/2000/svg" version="1.1" width="780" height="900"><desc style="-webkit-tap-highlight-color: rgba(0, 0, 0, 0); ">Created with Raphaël</desc><defs style="-webkit-tap-highlight-color: rgba(0, 0, 0, 0); "></defs><path style="-webkit-tap-highlight-color: rgba(0, 0, 0, 0); " fill="#2df7aa" stroke="none" d="M170.5,27.5L354.5,27.5A4,4,0,0,1,358.5,31.5L358.5,44.5A4,4,0,0,1,354.5,48.5L170.5,48.5Z"></path><rect style="-webkit-tap-highlight-color: rgba(0, 0, 0, 0); fill-opacity: 0; display: none; " x="170" y="26" width="188.36738029491391" height="22" r="0" rx="0" ry="0" fill="#000000" stroke="none" fill-opacity="0"></rect><path style="-webkit-tap-highlight-color: rgba(0, 0, 0, 0); " fill="#2df7aa" stroke="none" d="M170.5,60.5L331.5,60.5A4,4,0,0,1,335.5,64.5L335.5,77.5A4,4,0,0,1,331.5,81.5L170.5,81.5Z"></path><rect style="-webkit-tap-highlight-color: rgba(0, 0, 0, 0); fill-opacity: 0; display: none; " x="170" y="59" width="164.82145775804966" height="22" r="0" rx="0" ry="0" fill="#000000" stroke="none" fill-opacity="0"></rect><path style="-webkit-tap-highlight-color: rgba(0, 0, 0, 0); " fill="#2df7aa" stroke="none" d="M170.5,93.5L225.5,93.5A4,4,0,0,1,229.5,97.5L229.5,110.5A4,4,0,0,1,225.5,114.5L170.5,114.5Z"></path><rect style="-webkit-tap-highlight-color: rgba(0, 0, 0, 0); fill-opacity: 0; display: none; " x="170" y="92" width="58.8648063421606" height="22" r="0" rx="0" ry="0" fill="#000000" stroke="none" fill-opacity="0"></rect><path style="-webkit-tap-highlight-color: rgba(0, 0, 0, 0); " fill="#2df7aa" stroke="none" d="M170.5,126.5L284.5,126.5A4,4,0,0,1,288.5,130.5L288.5,143.5A4,4,0,0,1,284.5,147.5L170.5,147.5Z"></path><rect style="-webkit-tap-highlight-color: rgba(0, 0, 0, 0); fill-opacity: 0; display: none; " x="170" y="125" width="117.7296126843212" height="22" r="0" rx="0" ry="0" fill="#000000" stroke="none" fill-opacity="0"></rect><path style="-webkit-tap-highlight-color: rgba(0, 0, 0, 0); " fill="#2df7aa" stroke="none" d="M170.5,159.5L307.5,159.5A4,4,0,0,1,311.5,163.5L311.5,176.5A4,4,0,0,1,307.5,180.5L170.5,180.5Z"></path><rect style="-webkit-tap-highlight-color: rgba(0, 0, 0, 0); fill-opacity: 0; display: none; " x="170" y="158" width="141.27553522118544" height="22" r="0" rx="0" ry="0" fill="#000000" stroke="none" fill-opacity="0"></rect><path style="-webkit-tap-highlight-color: rgba(0, 0, 0, 0); " fill="#4fc6c6" stroke="none" d="M170.5,192.5L496.5,192.5A4,4,0,0,1,500.5,196.5L500.5,209.5A4,4,0,0,1,496.5,213.5L170.5,213.5Z"></path><rect style="-webkit-tap-highlight-color: rgba(0, 0, 0, 0); fill-opacity: 0; display: none; " x="170" y="191" width="329.6429155160993" height="22" r="0" rx="0" ry="0" fill="#000000" stroke="none" fill-opacity="0"></rect><path style="-webkit-tap-highlight-color: rgba(0, 0, 0, 0); " fill="#4fc6c6" stroke="none" d="M170.5,225.5L260.5,225.5A4,4,0,0,1,264.5,229.5L264.5,242.5A4,4,0,0,1,260.5,246.5L170.5,246.5Z"></path><rect style="-webkit-tap-highlight-color: rgba(0, 0, 0, 0); fill-opacity: 0; display: none; " x="170" y="224" width="94.18369014745696" height="22" r="0" rx="0" ry="0" fill="#000000" stroke="none" fill-opacity="0"></rect><path style="-webkit-tap-highlight-color: rgba(0, 0, 0, 0); " fill="#4fc6c6" stroke="none" d="M170.5,258.5L645.5,258.5A4,4,0,0,1,649.5,262.5L649.5,275.5A4,4,0,0,1,645.5,279.5L170.5,279.5Z"></path><rect style="-webkit-tap-highlight-color: rgba(0, 0, 0, 0); fill-opacity: 0; display: none; " x="170" y="257" width="479" height="22" r="0" rx="0" ry="0" fill="#000000" stroke="none" fill-opacity="0"></rect><path style="-webkit-tap-highlight-color: rgba(0, 0, 0, 0); " fill="#bcff52" stroke="none" d="M170.5,291.5L354.5,291.5A4,4,0,0,1,358.5,295.5L358.5,308.5A4,4,0,0,1,354.5,312.5L170.5,312.5Z"></path><rect style="-webkit-tap-highlight-color: rgba(0, 0, 0, 0); fill-opacity: 0; display: none; " x="170" y="290" width="188.36738029491391" height="22" r="0" rx="0" ry="0" fill="#000000" stroke="none" fill-opacity="0"></rect><path style="-webkit-tap-highlight-color: rgba(0, 0, 0, 0); " fill="#bcff52" stroke="none" d="M170.5,324.5L284.5,324.5A4,4,0,0,1,288.5,328.5L288.5,341.5A4,4,0,0,1,284.5,345.5L170.5,345.5Z"></path><rect style="-webkit-tap-highlight-color: rgba(0, 0, 0, 0); fill-opacity: 0; display: none; " x="170" y="323" width="117.7296126843212" height="22" r="0" rx="0" ry="0" fill="#000000" stroke="none" fill-opacity="0"></rect><path style="-webkit-tap-highlight-color: rgba(0, 0, 0, 0); " fill="#66e224" stroke="none" d="M170.5,357.5L225.5,357.5A4,4,0,0,1,229.5,361.5L229.5,374.5A4,4,0,0,1,225.5,378.5L170.5,378.5Z"></path><rect style="-webkit-tap-highlight-color: rgba(0, 0, 0, 0); fill-opacity: 0; display: none; " x="170" y="356" width="58.8648063421606" height="22" r="0" rx="0" ry="0" fill="#000000" stroke="none" fill-opacity="0"></rect><path style="-webkit-tap-highlight-color: rgba(0, 0, 0, 0); " fill="#66e224" stroke="none" d="M170.5,390.5L180.5,390.5A4,4,0,0,1,184.5,394.5L184.5,407.5A4,4,0,0,1,180.5,411.5L170.5,411.5Z"></path><rect style="-webkit-tap-highlight-color: rgba(0, 0, 0, 0); fill-opacity: 0; display: none; " x="170" y="389" width="14.127553522118543" height="22" r="0" rx="0" ry="0" fill="#000000" stroke="none" fill-opacity="0"></rect><path style="-webkit-tap-highlight-color: rgba(0, 0, 0, 0); " fill="#66e224" stroke="none" d="M170.5,423.5L173.5,423.5A4,4,0,0,1,177.5,427.5L177.5,440.5A4,4,0,0,1,173.5,444.5L170.5,444.5Z"></path><rect style="-webkit-tap-highlight-color: rgba(0, 0, 0, 0); fill-opacity: 0; display: none; " x="170" y="422" width="7.063776761059271" height="22" r="0" rx="0" ry="0" fill="#000000" stroke="none" fill-opacity="0"></rect><path style="-webkit-tap-highlight-color: rgba(0, 0, 0, 0); " fill="#66e224" stroke="none" d="M170.5,456.5L184.5,456.5A4,4,0,0,1,188.5,460.5L188.5,473.5A4,4,0,0,1,184.5,477.5L170.5,477.5Z"></path><rect style="-webkit-tap-highlight-color: rgba(0, 0, 0, 0); fill-opacity: 0; display: none; " x="170" y="455" width="17.65944190264818" height="22" r="0" rx="0" ry="0" fill="#000000" stroke="none" fill-opacity="0"></rect><rect style="-webkit-tap-highlight-color: rgba(0, 0, 0, 0); fill-opacity: 0; " x="170" y="26" width="480" height="22" r="0" rx="0" ry="0" fill="#000000" stroke="none" fill-opacity="0"></rect><rect style="-webkit-tap-highlight-color: rgba(0, 0, 0, 0); fill-opacity: 0; " x="170" y="59" width="480" height="22" r="0" rx="0" ry="0" fill="#000000" stroke="none" fill-opacity="0"></rect><rect style="-webkit-tap-highlight-color: rgba(0, 0, 0, 0); fill-opacity: 0; " x="170" y="92" width="480" height="22" r="0" rx="0" ry="0" fill="#000000" stroke="none" fill-opacity="0"></rect><rect style="-webkit-tap-highlight-color: rgba(0, 0, 0, 0); fill-opacity: 0; " x="170" y="125" width="480" height="22" r="0" rx="0" ry="0" fill="#000000" stroke="none" fill-opacity="0"></rect><rect style="-webkit-tap-highlight-color: rgba(0, 0, 0, 0); fill-opacity: 0; " x="170" y="158" width="480" height="22" r="0" rx="0" ry="0" fill="#000000" stroke="none" fill-opacity="0"></rect><rect style="-webkit-tap-highlight-color: rgba(0, 0, 0, 0); fill-opacity: 0; " x="170" y="191" width="480" height="22" r="0" rx="0" ry="0" fill="#000000" stroke="none" fill-opacity="0"></rect><rect style="-webkit-tap-highlight-color: rgba(0, 0, 0, 0); fill-opacity: 0; " x="170" y="224" width="480" height="22" r="0" rx="0" ry="0" fill="#000000" stroke="none" fill-opacity="0"></rect><rect style="-webkit-tap-highlight-color: rgba(0, 0, 0, 0); fill-opacity: 0; " x="170" y="257" width="480" height="22" r="0" rx="0" ry="0" fill="#000000" stroke="none" fill-opacity="0"></rect><rect style="-webkit-tap-highlight-color: rgba(0, 0, 0, 0); fill-opacity: 0; " x="170" y="290" width="480" height="22" r="0" rx="0" ry="0" fill="#000000" stroke="none" fill-opacity="0"></rect><rect style="-webkit-tap-highlight-color: rgba(0, 0, 0, 0); fill-opacity: 0; " x="170" y="323" width="480" height="22" r="0" rx="0" ry="0" fill="#000000" stroke="none" fill-opacity="0"></rect><rect style="-webkit-tap-highlight-color: rgba(0, 0, 0, 0); fill-opacity: 0; " x="170" y="356" width="480" height="22" r="0" rx="0" ry="0" fill="#000000" stroke="none" fill-opacity="0"></rect><rect style="-webkit-tap-highlight-color: rgba(0, 0, 0, 0); fill-opacity: 0; " x="170" y="389" width="480" height="22" r="0" rx="0" ry="0" fill="#000000" stroke="none" fill-opacity="0"></rect><rect style="-webkit-tap-highlight-color: rgba(0, 0, 0, 0); fill-opacity: 0; " x="170" y="422" width="480" height="22" r="0" rx="0" ry="0" fill="#000000" stroke="none" fill-opacity="0"></rect><rect style="-webkit-tap-highlight-color: rgba(0, 0, 0, 0); fill-opacity: 0; " x="170" y="455" width="480" height="22" r="0" rx="0" ry="0" fill="#000000" stroke="none" fill-opacity="0"></rect><text style="-webkit-tap-highlight-color: rgba(0, 0, 0, 0); text-anchor: end; font-style: normal; font-variant: normal; font-weight: normal; font-size: 12px; line-height: normal; font-family: Arvo; " x="156" y="474.283203125" text-anchor="end" font="12px Arvo" stroke="none" fill="#333333" font-weight="regular"><tspan style="-webkit-tap-highlight-color: rgba(0, 0, 0, 0); ">Ft. Hawkins</tspan></text><text style="-webkit-tap-highlight-color: rgba(0, 0, 0, 0); text-anchor: end; font-style: normal; font-variant: normal; font-weight: normal; font-size: 12px; line-height: normal; font-family: Arvo; " x="156" y="440.8216740534856" text-anchor="end" font="12px Arvo" stroke="none" fill="#333333" font-weight="regular"><tspan style="-webkit-tap-highlight-color: rgba(0, 0, 0, 0); ">Rose Hill Cemetery</tspan></text><text style="-webkit-tap-highlight-color: rgba(0, 0, 0, 0); text-anchor: end; font-style: normal; font-variant: normal; font-weight: normal; font-size: 12px; line-height: normal; font-family: Arvo; " x="156" y="407.36011446439306" text-anchor="end" font="12px Arvo" stroke="none" fill="#333333" font-weight="regular"><tspan style="-webkit-tap-highlight-color: rgba(0, 0, 0, 0); ">Bowden Golf</tspan></text><text style="-webkit-tap-highlight-color: rgba(0, 0, 0, 0); text-anchor: end; font-style: normal; font-variant: normal; font-weight: normal; font-size: 12px; line-height: normal; font-family: Arvo; " x="156" y="373.89858539287866" text-anchor="end" font="12px Arvo" stroke="none" fill="#333333" font-weight="regular"><tspan style="-webkit-tap-highlight-color: rgba(0, 0, 0, 0); ">Tubman Museum</tspan></text><text style="-webkit-tap-highlight-color: rgba(0, 0, 0, 0); text-anchor: end; font-style: normal; font-variant: normal; font-weight: normal; font-size: 12px; line-height: normal; font-family: Arvo; " x="156" y="340.43705632136425" text-anchor="end" font="12px Arvo" stroke="none" fill="#333333" font-weight="regular"><tspan style="-webkit-tap-highlight-color: rgba(0, 0, 0, 0); ">Centreplex</tspan></text><text style="-webkit-tap-highlight-color: rgba(0, 0, 0, 0); text-anchor: end; font-style: normal; font-variant: normal; font-weight: normal; font-size: 12px; line-height: normal; font-family: Arvo; " x="156" y="306.9754967322717" text-anchor="end" font="12px Arvo" stroke="none" fill="#333333" font-weight="regular"><tspan style="-webkit-tap-highlight-color: rgba(0, 0, 0, 0); ">Downtown Corridor</tspan></text><text style="-webkit-tap-highlight-color: rgba(0, 0, 0, 0); text-anchor: end; font-style: normal; font-variant: normal; font-weight: normal; font-size: 12px; line-height: normal; font-family: Arvo; " x="156" y="273.5139676607573" text-anchor="end" font="12px Arvo" stroke="none" fill="#333333" font-weight="regular"><tspan style="-webkit-tap-highlight-color: rgba(0, 0, 0, 0); ">Bond Repay</tspan></text><text style="-webkit-tap-highlight-color: rgba(0, 0, 0, 0); text-anchor: end; font-style: normal; font-variant: normal; font-weight: normal; font-size: 12px; line-height: normal; font-family: Arvo; " x="156" y="240.0524385892429" text-anchor="end" font="12px Arvo" stroke="none" fill="#333333" font-weight="regular"><tspan style="-webkit-tap-highlight-color: rgba(0, 0, 0, 0); ">GMA Lease Pool</tspan></text><text style="-webkit-tap-highlight-color: rgba(0, 0, 0, 0); text-anchor: end; font-style: normal; font-variant: normal; font-weight: normal; font-size: 12px; line-height: normal; font-family: Arvo; " x="156" y="206.59089425893944" text-anchor="end" font="12px Arvo" stroke="none" fill="#333333" font-weight="regular"><tspan style="-webkit-tap-highlight-color: rgba(0, 0, 0, 0); ">Debt Retirement</tspan></text><text style="-webkit-tap-highlight-color: rgba(0, 0, 0, 0); text-anchor: end; font-style: normal; font-variant: normal; font-weight: normal; font-size: 12px; line-height: normal; font-family: Arvo; " x="156" y="173.12934992863597" text-anchor="end" font="12px Arvo" stroke="none" fill="#333333" font-weight="regular"><tspan style="-webkit-tap-highlight-color: rgba(0, 0, 0, 0); ">Public Safety Other</tspan></text><text style="-webkit-tap-highlight-color: rgba(0, 0, 0, 0); text-anchor: end; font-style: normal; font-variant: normal; font-weight: normal; font-size: 12px; line-height: normal; font-family: Arvo; " x="156" y="139.66782085712157" text-anchor="end" font="12px Arvo" stroke="none" fill="#333333" font-weight="regular"><tspan style="-webkit-tap-highlight-color: rgba(0, 0, 0, 0); ">Street Maintenance</tspan></text><text style="-webkit-tap-highlight-color: rgba(0, 0, 0, 0); text-anchor: end; font-style: normal; font-variant: normal; font-weight: normal; font-size: 12px; line-height: normal; font-family: Arvo; " x="156" y="106.2062765268181" text-anchor="end" font="12px Arvo" stroke="none" fill="#333333" font-weight="regular"><tspan style="-webkit-tap-highlight-color: rgba(0, 0, 0, 0); ">Public Safety Equipment</tspan></text><text style="-webkit-tap-highlight-color: rgba(0, 0, 0, 0); text-anchor: end; font-style: normal; font-variant: normal; font-weight: normal; font-size: 12px; line-height: normal; font-family: Arvo; " x="156" y="72.74473982590916" text-anchor="end" font="12px Arvo" stroke="none" fill="#333333" font-weight="regular"><tspan style="-webkit-tap-highlight-color: rgba(0, 0, 0, 0); ">Storm Drainage</tspan></text><text style="-webkit-tap-highlight-color: rgba(0, 0, 0, 0); text-anchor: end; font-style: normal; font-variant: normal; font-weight: normal; font-size: 12px; line-height: normal; font-family: Arvo; " x="156" y="39.28320312500021" text-anchor="end" font="12px Arvo" stroke="none" fill="#333333" font-weight="regular"><tspan style="-webkit-tap-highlight-color: rgba(0, 0, 0, 0); ">800 Mhz</tspan></text><path style="-webkit-tap-highlight-color: rgba(0, 0, 0, 0); " fill="none" stroke="#000000" d="M160.5,470L160.5,35M158,470.5L161,470.5M158,437.03846153846155L161,437.03846153846155M158,403.5769230769231L161,403.5769230769231M158,370.11538461538464L161,370.11538461538464M158,336.6538461538462L161,336.6538461538462M158,303.19230769230774L161,303.19230769230774M158,269.7307692307693L161,269.7307692307693M158,236.26923076923083L161,236.26923076923083M158,202.80769230769238L161,202.80769230769238M158,169.34615384615392L161,169.34615384615392M158,135.88461538461547L161,135.88461538461547M158,102.42307692307702L161,102.42307692307702M158,68.96153846153857L161,68.96153846153857M158,35.50000000000011L161,35.50000000000011"></path><path style="-webkit-tap-highlight-color: rgba(0, 0, 0, 0); stroke-width: 1px; stroke-linejoin: round; " fill="#2df7aa" stroke="#ffffff" d="M230,710.0001909911839L112.77272727272728,586.8829182639112A170.00000000000009,170.00000000000009,0,0,1,347.22727272727275,586.8829182639112Z" stroke-width="1" stroke-linejoin="round" transform="  "></path><path style="-webkit-tap-highlight-color: rgba(0, 0, 0, 0); stroke-width: 1px; stroke-linejoin: round; " fill="#2df7aa" stroke="#ffffff" d="M229.99991715356225,709.9999381485361L347.227189880835,586.8826654212634A170.00000000000003,170.00000000000003,0,0,1,395.23264442628954,749.9772108758089Z" stroke-width="1" stroke-linejoin="round" transform="  "></path><path style="-webkit-tap-highlight-color: rgba(0, 0, 0, 0); stroke-width: 1px; stroke-linejoin: round; " fill="#2df7aa" stroke="#ffffff" d="M229.99997921886632,710.0001903501652L395.2327064915936,749.977463077438A170.00000000000003,170.00000000000003,0,0,1,343.99634285522995,836.1147358047107Z" stroke-width="1" stroke-linejoin="round" transform="  "></path><path style="-webkit-tap-highlight-color: rgba(0, 0, 0, 0); stroke-width: 1px; stroke-linejoin: round; " fill="#2df7aa" stroke="#ffffff" d="M230,710L343.9957253626214,836.1149261548759A170,170,0,0,1,253.1364917611904,878.4182375783109Z" stroke-width="1" stroke-linejoin="round"></path><path style="-webkit-tap-highlight-color: rgba(0, 0, 0, 0); stroke-width: 1px; stroke-linejoin: round; " fill="#2df7aa" stroke="#ffffff" d="M230.00012065418542,710.0000281254754L253.13648429054905,878.4182099436572A170.00000000000003,170.00000000000003,0,0,1,165.8210297450945,867.4200281254754Z" stroke-width="1" stroke-linejoin="round" transform="  "></path><path style="-webkit-tap-highlight-color: rgba(0, 0, 0, 0); stroke-width: 1px; stroke-linejoin: round; " fill="#4fc6c6" stroke="#ffffff" d="M229.999861115972,710.0000038402104L165.8207702068811,867.4200038402104A170.00000000000006,170.00000000000006,0,0,1,103.8707702068811,823.9800038402104Z" stroke-width="1" stroke-linejoin="round" transform="  "></path><path style="-webkit-tap-highlight-color: rgba(0, 0, 0, 0); stroke-width: 1px; stroke-linejoin: round; " fill="#4fc6c6" stroke="#ffffff" d="M229.999915306623,709.999872690471L103.8708243975321,823.979872690471A170.00000000000003,170.00000000000003,0,0,1,70.94627894298665,770.0162363268346Z" stroke-width="1" stroke-linejoin="round" transform="  "></path><path style="-webkit-tap-highlight-color: rgba(0, 0, 0, 0); stroke-width: 1px; stroke-linejoin: round; " fill="#4fc6c6" stroke="#ffffff" d="M230.00015046701364,709.9998413626046L70.94651410337727,770.0162049989682A170.00000000000003,170.00000000000003,0,0,1,60.01469592155909,707.7525686353318Z" stroke-width="1" stroke-linejoin="round" transform="  "></path><path style="-webkit-tap-highlight-color: rgba(0, 0, 0, 0); stroke-width: 1px; stroke-linejoin: round; " fill="#bcff52" stroke="#ffffff" d="M230.0001522684238,710.0002126047214L60.01469772296923,707.7529398774486A170.00000000000003,170.00000000000003,0,0,1,68.23015226842378,657.7447580592668Z" stroke-width="1" stroke-linejoin="round" transform="  "></path><path style="-webkit-tap-highlight-color: rgba(0, 0, 0, 0); stroke-width: 1px; stroke-linejoin: round; " fill="#bcff52" stroke="#ffffff" d="M230.0001869800447,710.000080491184L68.23018698004469,657.7446259457295A170.00000000000006,170.00000000000006,0,0,1,112.77291425277195,586.8828077639113Z" stroke-width="1" stroke-linejoin="round" transform="  "></path><a style="-webkit-tap-highlight-color: rgba(0, 0, 0, 0); " href="#"><path style="-webkit-tap-highlight-color: rgba(0, 0, 0, 0); fill-opacity: 0; " fill="#000000" stroke="none" d="M230,710L112.7729690063227,586.882888255095A170,170,0,0,1,347.2270309936773,586.882888255095Z" fill-opacity="0"></path></a><a style="-webkit-tap-highlight-color: rgba(0, 0, 0, 0); " href="#"><path style="-webkit-tap-highlight-color: rgba(0, 0, 0, 0); fill-opacity: 0; " fill="#000000" stroke="none" d="M230,710L347.2270309936773,586.882888255095A170,170,0,0,1,395.23268571045986,749.9769880419773Z" fill-opacity="0"></path></a><path style="-webkit-tap-highlight-color: rgba(0, 0, 0, 0); fill-opacity: 0; " fill="#000000" stroke="none" d="M230,710L395.23268571045986,749.9769880419773A170,170,0,0,1,343.9957253626214,836.1149261548759Z" fill-opacity="0"></path><path style="-webkit-tap-highlight-color: rgba(0, 0, 0, 0); fill-opacity: 0; " fill="#000000" stroke="none" d="M230,710L343.9957253626214,836.1149261548759A170,170,0,0,1,253.1364917611904,878.4182375783109Z" fill-opacity="0"></path><path style="-webkit-tap-highlight-color: rgba(0, 0, 0, 0); fill-opacity: 0; " fill="#000000" stroke="none" d="M230,710L253.1364917611904,878.4182375783109A170,170,0,0,1,165.82102227445313,867.4200076804209Z" fill-opacity="0"></path><path style="-webkit-tap-highlight-color: rgba(0, 0, 0, 0); fill-opacity: 0; " fill="#000000" stroke="none" d="M230,710L165.82102227445313,867.4200076804209A170,170,0,0,1,103.87063132285314,823.979745380942Z" fill-opacity="0"></path><path style="-webkit-tap-highlight-color: rgba(0, 0, 0, 0); fill-opacity: 0; " fill="#000000" stroke="none" d="M230,710L103.87063132285314,823.979745380942A170,170,0,0,1,70.94619424960962,770.0157219094887Z" fill-opacity="0"></path><path style="-webkit-tap-highlight-color: rgba(0, 0, 0, 0); fill-opacity: 0; " fill="#000000" stroke="none" d="M230,710L70.94619424960962,770.0157219094887A170,170,0,0,1,60.01484999139299,707.7530517248115Z" fill-opacity="0"></path><path style="-webkit-tap-highlight-color: rgba(0, 0, 0, 0); fill-opacity: 0; " fill="#000000" stroke="none" d="M230,710L60.01484999139299,707.7530517248115A170,170,0,0,1,68.2303739600894,657.744970663988Z" fill-opacity="0"></path><path style="-webkit-tap-highlight-color: rgba(0, 0, 0, 0); fill-opacity: 0; " fill="#000000" stroke="none" d="M230,710L68.2303739600894,657.744970663988A170,170,0,0,1,112.77296900632271,586.8828882550949Z" fill-opacity="0"></path><circle style="-webkit-tap-highlight-color: rgba(0, 0, 0, 0); " cx="439" cy="640.9031066894531" r="5" fill="#2df7aa" stroke="none"></circle><text style="-webkit-tap-highlight-color: rgba(0, 0, 0, 0); text-anchor: start; font-style: normal; font-variant: normal; font-weight: 400; font-size: 12px; line-height: normal; font-family: Arial, sans-serif; " x="454" y="645.063232421875" text-anchor="start" font="12px Arial, sans-serif" stroke="none" fill="#000000" font-weight="400"><tspan style="-webkit-tap-highlight-color: rgba(0, 0, 0, 0); ">GMA Lease Pool</tspan></text><circle style="-webkit-tap-highlight-color: rgba(0, 0, 0, 0); " cx="439" cy="656.9906066894531" r="5" fill="#2df7aa" stroke="none"></circle><text style="-webkit-tap-highlight-color: rgba(0, 0, 0, 0); text-anchor: start; font-style: normal; font-variant: normal; font-weight: 400; font-size: 12px; line-height: normal; font-family: Arial, sans-serif; " x="454" y="661.1507690429687" text-anchor="start" font="12px Arial, sans-serif" stroke="none" fill="#000000" font-weight="400"><tspan style="-webkit-tap-highlight-color: rgba(0, 0, 0, 0); ">Downtown Corridor</tspan></text><circle style="-webkit-tap-highlight-color: rgba(0, 0, 0, 0); " cx="439" cy="673.0781066894531" r="5" fill="#2df7aa" stroke="none"></circle><text style="-webkit-tap-highlight-color: rgba(0, 0, 0, 0); text-anchor: start; font-style: normal; font-variant: normal; font-weight: 400; font-size: 12px; line-height: normal; font-family: Arial, sans-serif; " x="454" y="677.2382446289062" text-anchor="start" font="12px Arial, sans-serif" stroke="none" fill="#000000" font-weight="400"><tspan style="-webkit-tap-highlight-color: rgba(0, 0, 0, 0); ">Debt Retirement</tspan></text><circle style="-webkit-tap-highlight-color: rgba(0, 0, 0, 0); " cx="439" cy="689.165606689453" r="5" fill="#2df7aa" stroke="none"></circle><text style="-webkit-tap-highlight-color: rgba(0, 0, 0, 0); text-anchor: start; font-style: normal; font-variant: normal; font-weight: normal; font-size: 12px; line-height: normal; font-family: Arial, sans-serif; " x="454" y="693.3257812499999" text-anchor="start" font="12px Arial, sans-serif" stroke="none" fill="#000000"><tspan style="-webkit-tap-highlight-color: rgba(0, 0, 0, 0); ">Ft. Hawkins</tspan></text><circle style="-webkit-tap-highlight-color: rgba(0, 0, 0, 0); " cx="439" cy="705.253106689453" r="5" fill="#2df7aa" stroke="none"></circle><text style="-webkit-tap-highlight-color: rgba(0, 0, 0, 0); text-anchor: start; font-style: normal; font-variant: normal; font-weight: 400; font-size: 12px; line-height: normal; font-family: Arial, sans-serif; " x="454" y="709.4132568359373" text-anchor="start" font="12px Arial, sans-serif" stroke="none" fill="#000000" font-weight="400"><tspan style="-webkit-tap-highlight-color: rgba(0, 0, 0, 0); ">Rose Hill Cemetery</tspan></text><circle style="-webkit-tap-highlight-color: rgba(0, 0, 0, 0); " cx="439" cy="721.340606689453" r="5" fill="#4fc6c6" stroke="none"></circle><text style="-webkit-tap-highlight-color: rgba(0, 0, 0, 0); text-anchor: start; font-style: normal; font-variant: normal; font-weight: 400; font-size: 12px; line-height: normal; font-family: Arial, sans-serif; " x="454" y="725.500793457031" text-anchor="start" font="12px Arial, sans-serif" stroke="none" fill="#000000" font-weight="400"><tspan style="-webkit-tap-highlight-color: rgba(0, 0, 0, 0); ">Centreplex</tspan></text><circle style="-webkit-tap-highlight-color: rgba(0, 0, 0, 0); " cx="439" cy="737.428106689453" r="5" fill="#4fc6c6" stroke="none"></circle><text style="-webkit-tap-highlight-color: rgba(0, 0, 0, 0); text-anchor: start; font-style: normal; font-variant: normal; font-weight: 400; font-size: 12px; line-height: normal; font-family: Arial, sans-serif; " x="454" y="741.5882690429685" text-anchor="start" font="12px Arial, sans-serif" stroke="none" fill="#000000" font-weight="400"><tspan style="-webkit-tap-highlight-color: rgba(0, 0, 0, 0); ">Tubman Museum</tspan></text><circle style="-webkit-tap-highlight-color: rgba(0, 0, 0, 0); " cx="439" cy="753.515606689453" r="5" fill="#4fc6c6" stroke="none"></circle><text style="-webkit-tap-highlight-color: rgba(0, 0, 0, 0); text-anchor: start; font-style: normal; font-variant: normal; font-weight: 400; font-size: 12px; line-height: normal; font-family: Arial, sans-serif; " x="454" y="757.6757446289059" text-anchor="start" font="12px Arial, sans-serif" stroke="none" fill="#000000" font-weight="400"><tspan style="-webkit-tap-highlight-color: rgba(0, 0, 0, 0); ">Public Safety Other</tspan></text><circle style="-webkit-tap-highlight-color: rgba(0, 0, 0, 0); " cx="439" cy="769.6031066894529" r="5" fill="#bcff52" stroke="none"></circle><text style="-webkit-tap-highlight-color: rgba(0, 0, 0, 0); text-anchor: start; font-style: normal; font-variant: normal; font-weight: 400; font-size: 12px; line-height: normal; font-family: Arial, sans-serif; " x="454" y="773.7632812499996" text-anchor="start" font="12px Arial, sans-serif" stroke="none" fill="#000000" font-weight="400"><tspan style="-webkit-tap-highlight-color: rgba(0, 0, 0, 0); ">Bond Repay</tspan></text><circle style="-webkit-tap-highlight-color: rgba(0, 0, 0, 0); " cx="439" cy="785.6906066894529" r="5" fill="#bcff52" stroke="none"></circle><text style="-webkit-tap-highlight-color: rgba(0, 0, 0, 0); text-anchor: start; font-style: normal; font-variant: normal; font-weight: 400; font-size: 12px; line-height: normal; font-family: Arial, sans-serif; " x="454" y="789.8507568359371" text-anchor="start" font="12px Arial, sans-serif" stroke="none" fill="#000000" font-weight="400"><tspan style="-webkit-tap-highlight-color: rgba(0, 0, 0, 0); ">Others</tspan></text></svg>